<mxfile host="app.diagrams.net" modified="2024-07-17T16:04:10.032Z" agent="Mozilla/5.0 (Windows NT 10.0; Win64; x64) AppleWebKit/537.36 (KHTML, like Gecko) Chrome/125.0.0.0 Safari/537.36" etag="cm-A2VdkfIhlOL4nrILN" version="24.7.1" type="github">
  <diagram name="페이지-1" id="3h8uX0O5nPm9dWhvuzVW">
    <mxGraphModel dx="2868" dy="1560" grid="1" gridSize="10" guides="1" tooltips="1" connect="1" arrows="1" fold="1" page="1" pageScale="1" pageWidth="827" pageHeight="1169" math="0" shadow="0">
      <root>
        <mxCell id="0" />
        <mxCell id="1" parent="0" />
        <mxCell id="r3gAfWyri1p_ZoTZVbQI-1" value="사용자" style="shape=umlActor;verticalLabelPosition=bottom;verticalAlign=top;html=1;outlineConnect=0;" vertex="1" parent="1">
          <mxGeometry x="226" y="197" width="30" height="60" as="geometry" />
        </mxCell>
        <mxCell id="r3gAfWyri1p_ZoTZVbQI-2" value="IntroMenu" style="rounded=1;whiteSpace=wrap;html=1;" vertex="1" parent="1">
          <mxGeometry x="390" y="197" width="120" height="60" as="geometry" />
        </mxCell>
        <mxCell id="r3gAfWyri1p_ZoTZVbQI-3" value="" style="endArrow=none;dashed=1;html=1;dashPattern=1 3;strokeWidth=2;rounded=0;entryX=0.5;entryY=1;entryDx=0;entryDy=0;" edge="1" parent="1" source="r3gAfWyri1p_ZoTZVbQI-23" target="r3gAfWyri1p_ZoTZVbQI-2">
          <mxGeometry width="50" height="50" relative="1" as="geometry">
            <mxPoint x="450" y="1069" as="sourcePoint" />
            <mxPoint x="500" y="488" as="targetPoint" />
          </mxGeometry>
        </mxCell>
        <mxCell id="r3gAfWyri1p_ZoTZVbQI-4" value="" style="endArrow=none;dashed=1;html=1;dashPattern=1 3;strokeWidth=2;rounded=0;" edge="1" parent="1" target="r3gAfWyri1p_ZoTZVbQI-1">
          <mxGeometry width="50" height="50" relative="1" as="geometry">
            <mxPoint x="240" y="1070" as="sourcePoint" />
            <mxPoint x="280" y="320" as="targetPoint" />
          </mxGeometry>
        </mxCell>
        <mxCell id="r3gAfWyri1p_ZoTZVbQI-6" value="Village" style="rounded=1;whiteSpace=wrap;html=1;" vertex="1" parent="1">
          <mxGeometry x="650" y="199" width="120" height="60" as="geometry" />
        </mxCell>
        <mxCell id="r3gAfWyri1p_ZoTZVbQI-7" value="" style="endArrow=none;dashed=1;html=1;dashPattern=1 3;strokeWidth=2;rounded=0;entryX=0.5;entryY=1;entryDx=0;entryDy=0;" edge="1" parent="1" target="r3gAfWyri1p_ZoTZVbQI-6">
          <mxGeometry width="50" height="50" relative="1" as="geometry">
            <mxPoint x="710" y="1071" as="sourcePoint" />
            <mxPoint x="760" y="490" as="targetPoint" />
          </mxGeometry>
        </mxCell>
        <mxCell id="r3gAfWyri1p_ZoTZVbQI-8" value="Dungeon" style="rounded=1;whiteSpace=wrap;html=1;" vertex="1" parent="1">
          <mxGeometry x="1230" y="197" width="120" height="60" as="geometry" />
        </mxCell>
        <mxCell id="r3gAfWyri1p_ZoTZVbQI-9" value="" style="endArrow=none;dashed=1;html=1;dashPattern=1 3;strokeWidth=2;rounded=0;entryX=0.5;entryY=1;entryDx=0;entryDy=0;" edge="1" parent="1" target="r3gAfWyri1p_ZoTZVbQI-8">
          <mxGeometry width="50" height="50" relative="1" as="geometry">
            <mxPoint x="1290" y="1069" as="sourcePoint" />
            <mxPoint x="1340" y="488" as="targetPoint" />
          </mxGeometry>
        </mxCell>
        <mxCell id="r3gAfWyri1p_ZoTZVbQI-10" value="Player" style="rounded=1;whiteSpace=wrap;html=1;" vertex="1" parent="1">
          <mxGeometry x="940" y="197" width="120" height="60" as="geometry" />
        </mxCell>
        <mxCell id="r3gAfWyri1p_ZoTZVbQI-11" value="" style="endArrow=none;dashed=1;html=1;dashPattern=1 3;strokeWidth=2;rounded=0;entryX=0.5;entryY=1;entryDx=0;entryDy=0;" edge="1" parent="1" target="r3gAfWyri1p_ZoTZVbQI-10">
          <mxGeometry width="50" height="50" relative="1" as="geometry">
            <mxPoint x="1000" y="1069" as="sourcePoint" />
            <mxPoint x="1050" y="488" as="targetPoint" />
          </mxGeometry>
        </mxCell>
        <mxCell id="r3gAfWyri1p_ZoTZVbQI-12" value="Monster" style="rounded=1;whiteSpace=wrap;html=1;" vertex="1" parent="1">
          <mxGeometry x="1520" y="248" width="120" height="60" as="geometry" />
        </mxCell>
        <mxCell id="r3gAfWyri1p_ZoTZVbQI-13" value="" style="endArrow=none;dashed=1;html=1;dashPattern=1 3;strokeWidth=2;rounded=0;entryX=0.5;entryY=1;entryDx=0;entryDy=0;" edge="1" parent="1" target="r3gAfWyri1p_ZoTZVbQI-12">
          <mxGeometry width="50" height="50" relative="1" as="geometry">
            <mxPoint x="1580" y="1069" as="sourcePoint" />
            <mxPoint x="1630" y="488" as="targetPoint" />
          </mxGeometry>
        </mxCell>
        <mxCell id="r3gAfWyri1p_ZoTZVbQI-14" value="" style="rounded=0;whiteSpace=wrap;html=1;" vertex="1" parent="1">
          <mxGeometry x="440" y="541" width="20.5" height="40" as="geometry" />
        </mxCell>
        <mxCell id="r3gAfWyri1p_ZoTZVbQI-15" value="" style="endArrow=classic;html=1;rounded=0;entryX=0;entryY=0;entryDx=0;entryDy=0;" edge="1" parent="1" target="r3gAfWyri1p_ZoTZVbQI-14">
          <mxGeometry width="50" height="50" relative="1" as="geometry">
            <mxPoint x="240" y="541" as="sourcePoint" />
            <mxPoint x="390" y="671" as="targetPoint" />
          </mxGeometry>
        </mxCell>
        <mxCell id="r3gAfWyri1p_ZoTZVbQI-17" value="playerInitialization()" style="text;html=1;align=center;verticalAlign=middle;resizable=0;points=[];autosize=1;strokeColor=none;fillColor=none;" vertex="1" parent="1">
          <mxGeometry x="284.75" y="511" width="130" height="30" as="geometry" />
        </mxCell>
        <mxCell id="r3gAfWyri1p_ZoTZVbQI-18" value="" style="endArrow=classic;html=1;rounded=0;exitX=0.25;exitY=1;exitDx=0;exitDy=0;" edge="1" parent="1" source="r3gAfWyri1p_ZoTZVbQI-14">
          <mxGeometry width="50" height="50" relative="1" as="geometry">
            <mxPoint x="390" y="671" as="sourcePoint" />
            <mxPoint x="240" y="581" as="targetPoint" />
          </mxGeometry>
        </mxCell>
        <mxCell id="r3gAfWyri1p_ZoTZVbQI-19" value="" style="rounded=0;whiteSpace=wrap;html=1;" vertex="1" parent="1">
          <mxGeometry x="439.75" y="611" width="20.5" height="40" as="geometry" />
        </mxCell>
        <mxCell id="r3gAfWyri1p_ZoTZVbQI-20" value="" style="endArrow=classic;html=1;rounded=0;entryX=0;entryY=0;entryDx=0;entryDy=0;" edge="1" parent="1" target="r3gAfWyri1p_ZoTZVbQI-19">
          <mxGeometry width="50" height="50" relative="1" as="geometry">
            <mxPoint x="239.75" y="611" as="sourcePoint" />
            <mxPoint x="389.75" y="741" as="targetPoint" />
          </mxGeometry>
        </mxCell>
        <mxCell id="r3gAfWyri1p_ZoTZVbQI-21" value="GaneStarOrGameEixt()" style="text;html=1;align=center;verticalAlign=middle;resizable=0;points=[];autosize=1;strokeColor=none;fillColor=none;" vertex="1" parent="1">
          <mxGeometry x="274.75" y="581" width="150" height="30" as="geometry" />
        </mxCell>
        <mxCell id="r3gAfWyri1p_ZoTZVbQI-22" value="" style="endArrow=classic;html=1;rounded=0;exitX=0.25;exitY=1;exitDx=0;exitDy=0;" edge="1" parent="1" source="r3gAfWyri1p_ZoTZVbQI-19">
          <mxGeometry width="50" height="50" relative="1" as="geometry">
            <mxPoint x="389.75" y="741" as="sourcePoint" />
            <mxPoint x="239.75" y="651" as="targetPoint" />
          </mxGeometry>
        </mxCell>
        <mxCell id="r3gAfWyri1p_ZoTZVbQI-24" value="" style="endArrow=none;dashed=1;html=1;dashPattern=1 3;strokeWidth=2;rounded=0;entryX=0.5;entryY=1;entryDx=0;entryDy=0;" edge="1" parent="1" source="r3gAfWyri1p_ZoTZVbQI-37" target="r3gAfWyri1p_ZoTZVbQI-23">
          <mxGeometry width="50" height="50" relative="1" as="geometry">
            <mxPoint x="450" y="1260" as="sourcePoint" />
            <mxPoint x="450" y="499" as="targetPoint" />
          </mxGeometry>
        </mxCell>
        <mxCell id="r3gAfWyri1p_ZoTZVbQI-23" value="" style="rounded=0;whiteSpace=wrap;html=1;" vertex="1" parent="1">
          <mxGeometry x="439.75" y="721" width="20.25" height="250" as="geometry" />
        </mxCell>
        <mxCell id="r3gAfWyri1p_ZoTZVbQI-25" value="" style="endArrow=classic;html=1;rounded=0;entryX=0;entryY=0;entryDx=0;entryDy=0;" edge="1" parent="1" target="r3gAfWyri1p_ZoTZVbQI-23">
          <mxGeometry width="50" height="50" relative="1" as="geometry">
            <mxPoint x="240" y="721" as="sourcePoint" />
            <mxPoint x="430" y="801" as="targetPoint" />
          </mxGeometry>
        </mxCell>
        <mxCell id="r3gAfWyri1p_ZoTZVbQI-26" value="SelectPlayerJob(Player*player)" style="text;html=1;align=center;verticalAlign=middle;whiteSpace=wrap;rounded=0;" vertex="1" parent="1">
          <mxGeometry x="319.75" y="691" width="60" height="30" as="geometry" />
        </mxCell>
        <mxCell id="r3gAfWyri1p_ZoTZVbQI-27" value="" style="rounded=0;whiteSpace=wrap;html=1;" vertex="1" parent="1">
          <mxGeometry x="427.88" y="776" width="42.12" height="85" as="geometry" />
        </mxCell>
        <mxCell id="r3gAfWyri1p_ZoTZVbQI-28" value="" style="endArrow=classic;html=1;rounded=0;entryX=0.977;entryY=0.942;entryDx=0;entryDy=0;exitX=1;exitY=0;exitDx=0;exitDy=0;entryPerimeter=0;" edge="1" parent="1">
          <mxGeometry width="50" height="50" relative="1" as="geometry">
            <mxPoint x="473.65999999999985" y="776" as="sourcePoint" />
            <mxPoint x="472.6307499999999" y="860.78" as="targetPoint" />
            <Array as="points">
              <mxPoint x="521.03" y="776" />
              <mxPoint x="521.03" y="861" />
            </Array>
          </mxGeometry>
        </mxCell>
        <mxCell id="r3gAfWyri1p_ZoTZVbQI-29" value="SelectPlayerName(Player*player)" style="edgeLabel;html=1;align=center;verticalAlign=middle;resizable=0;points=[];" vertex="1" connectable="0" parent="r3gAfWyri1p_ZoTZVbQI-28">
          <mxGeometry x="0.1898" y="-2" relative="1" as="geometry">
            <mxPoint y="-15" as="offset" />
          </mxGeometry>
        </mxCell>
        <mxCell id="r3gAfWyri1p_ZoTZVbQI-32" value="" style="rounded=0;whiteSpace=wrap;html=1;" vertex="1" parent="1">
          <mxGeometry x="429.19" y="871" width="42.12" height="85" as="geometry" />
        </mxCell>
        <mxCell id="r3gAfWyri1p_ZoTZVbQI-33" value="SelectPlayerName(Player*player)" style="edgeLabel;html=1;align=center;verticalAlign=middle;resizable=0;points=[];" vertex="1" connectable="0" parent="1">
          <mxGeometry x="520.0000000000001" y="913.5033333333331" as="geometry" />
        </mxCell>
        <mxCell id="r3gAfWyri1p_ZoTZVbQI-34" value="" style="endArrow=classic;html=1;rounded=0;entryX=0.977;entryY=0.942;entryDx=0;entryDy=0;exitX=1;exitY=0;exitDx=0;exitDy=0;entryPerimeter=0;" edge="1" parent="1">
          <mxGeometry width="50" height="50" relative="1" as="geometry">
            <mxPoint x="475.02999999999986" y="871" as="sourcePoint" />
            <mxPoint x="474.0007499999999" y="955.78" as="targetPoint" />
            <Array as="points">
              <mxPoint x="522.4" y="871" />
              <mxPoint x="522.4" y="956" />
            </Array>
          </mxGeometry>
        </mxCell>
        <mxCell id="r3gAfWyri1p_ZoTZVbQI-35" value="SetRandomOfPlayerAbility(Player*player)" style="edgeLabel;html=1;align=center;verticalAlign=middle;resizable=0;points=[];" vertex="1" connectable="0" parent="r3gAfWyri1p_ZoTZVbQI-34">
          <mxGeometry x="0.1898" y="-2" relative="1" as="geometry">
            <mxPoint y="-15" as="offset" />
          </mxGeometry>
        </mxCell>
        <mxCell id="r3gAfWyri1p_ZoTZVbQI-38" value="" style="endArrow=none;dashed=1;html=1;dashPattern=1 3;strokeWidth=2;rounded=0;entryX=0.5;entryY=1;entryDx=0;entryDy=0;" edge="1" parent="1" target="r3gAfWyri1p_ZoTZVbQI-37">
          <mxGeometry width="50" height="50" relative="1" as="geometry">
            <mxPoint x="450" y="1069" as="sourcePoint" />
            <mxPoint x="450" y="780" as="targetPoint" />
          </mxGeometry>
        </mxCell>
        <mxCell id="r3gAfWyri1p_ZoTZVbQI-37" value="" style="rounded=0;whiteSpace=wrap;html=1;" vertex="1" parent="1">
          <mxGeometry x="438.41" y="991" width="21.06" height="50" as="geometry" />
        </mxCell>
        <mxCell id="r3gAfWyri1p_ZoTZVbQI-41" value="StartAdventure()" style="edgeLabel;html=1;align=center;verticalAlign=middle;resizable=0;points=[];" vertex="1" connectable="0" parent="1">
          <mxGeometry x="450.25" y="991.0033333333333" as="geometry" />
        </mxCell>
        <mxCell id="r3gAfWyri1p_ZoTZVbQI-53" value="" style="edgeStyle=orthogonalEdgeStyle;rounded=0;orthogonalLoop=1;jettySize=auto;html=1;" edge="1" parent="1" source="r3gAfWyri1p_ZoTZVbQI-42" target="r3gAfWyri1p_ZoTZVbQI-10">
          <mxGeometry relative="1" as="geometry" />
        </mxCell>
        <mxCell id="r3gAfWyri1p_ZoTZVbQI-42" value="" style="rounded=0;whiteSpace=wrap;html=1;" vertex="1" parent="1">
          <mxGeometry x="989.47" y="280" width="20.53" height="210" as="geometry" />
        </mxCell>
        <mxCell id="r3gAfWyri1p_ZoTZVbQI-44" value="" style="endArrow=classic;html=1;rounded=0;entryX=0;entryY=0;entryDx=0;entryDy=0;" edge="1" parent="1" target="r3gAfWyri1p_ZoTZVbQI-42">
          <mxGeometry width="50" height="50" relative="1" as="geometry">
            <mxPoint x="240" y="280" as="sourcePoint" />
            <mxPoint x="300" y="250" as="targetPoint" />
          </mxGeometry>
        </mxCell>
        <mxCell id="r3gAfWyri1p_ZoTZVbQI-45" value="playerInitialization(Player*player)" style="edgeLabel;html=1;align=center;verticalAlign=middle;resizable=0;points=[];" vertex="1" connectable="0" parent="1">
          <mxGeometry x="989.4699999999999" y="277.9974074074073" as="geometry" />
        </mxCell>
        <mxCell id="r3gAfWyri1p_ZoTZVbQI-49" value="" style="rounded=0;whiteSpace=wrap;html=1;" vertex="1" parent="1">
          <mxGeometry x="979.47" y="320" width="40.53" height="60" as="geometry" />
        </mxCell>
        <mxCell id="r3gAfWyri1p_ZoTZVbQI-52" value="" style="endArrow=classic;html=1;rounded=0;entryX=1.049;entryY=0.959;entryDx=0;entryDy=0;entryPerimeter=0;" edge="1" parent="1" target="r3gAfWyri1p_ZoTZVbQI-49">
          <mxGeometry width="50" height="50" relative="1" as="geometry">
            <mxPoint x="1020" y="320" as="sourcePoint" />
            <mxPoint x="1060" y="370" as="targetPoint" />
            <Array as="points">
              <mxPoint x="1050" y="320" />
              <mxPoint x="1050" y="378" />
            </Array>
          </mxGeometry>
        </mxCell>
        <mxCell id="r3gAfWyri1p_ZoTZVbQI-54" value="playerInventoryInitial(Player*player)" style="edgeLabel;html=1;align=center;verticalAlign=middle;resizable=0;points=[];" vertex="1" connectable="0" parent="1">
          <mxGeometry x="999.9999999999999" y="319.9974074074073" as="geometry" />
        </mxCell>
        <mxCell id="r3gAfWyri1p_ZoTZVbQI-55" value="" style="rounded=0;whiteSpace=wrap;html=1;" vertex="1" parent="1">
          <mxGeometry x="979.47" y="400" width="40.53" height="60" as="geometry" />
        </mxCell>
        <mxCell id="r3gAfWyri1p_ZoTZVbQI-56" value="" style="endArrow=classic;html=1;rounded=0;entryX=1.049;entryY=0.959;entryDx=0;entryDy=0;entryPerimeter=0;" edge="1" parent="1">
          <mxGeometry width="50" height="50" relative="1" as="geometry">
            <mxPoint x="1020" y="400" as="sourcePoint" />
            <mxPoint x="1022" y="458" as="targetPoint" />
            <Array as="points">
              <mxPoint x="1050" y="400" />
              <mxPoint x="1050" y="458" />
            </Array>
          </mxGeometry>
        </mxCell>
        <mxCell id="r3gAfWyri1p_ZoTZVbQI-58" value="&lt;div style=&quot;text-align: center;&quot;&gt;&lt;span style=&quot;color: rgba(0, 0, 0, 0); font-family: monospace; font-size: 0px; text-align: start; background-color: rgb(251, 251, 251);&quot;&gt;%3CmxGraphModel%3E%3Croot%3E%3CmxCell%20id%3D%220%22%2F%3E%3CmxCell%20id%3D%221%22%20parent%3D%220%22%2F%3E%3CmxCell%20id%3D%222%22%20value%3D%22playerInventoryInitial(Player*player)%22%20style%3D%22edgeLabel%3Bhtml%3D1%3Balign%3Dcenter%3BverticalAlign%3Dmiddle%3Bresizable%3D0%3Bpoints%3D%5B%5D%3B%22%20vertex%3D%221%22%20connectable%3D%220%22%20parent%3D%221%22%3E%3CmxGeometry%20x%3D%22999.9999999999999%22%20y%3D%22319.9974074074073%22%20as%3D%22geometry%22%2F%3E%3C%2FmxCell%3E%3C%2Froot%3E%3C%2FmxGraphModel%3E&lt;/span&gt;&lt;font face=&quot;monospace&quot;&gt;&lt;span style=&quot;color: rgba(0, 0, 0, 0); font-size: 0px;&quot;&gt;playerQuestListInitia&lt;/span&gt;&lt;font color=&quot;#ba0000&quot;&gt;&lt;span style=&quot;font-size: 0px;&quot;&gt;playerQuestListInitial&lt;/span&gt;&lt;/font&gt;&lt;span style=&quot;color: rgba(0, 0, 0, 0); font-size: 0px;&quot;&gt;lㅔㅔ[ㅔ&lt;/span&gt;&lt;/font&gt;PlayerQuestListInitial(Player*player)&lt;/div&gt;" style="edgeLabel;html=1;align=center;verticalAlign=middle;resizable=0;points=[];" vertex="1" connectable="0" parent="1">
          <mxGeometry x="999.7399999999999" y="399.9974074074073" as="geometry" />
        </mxCell>
        <mxCell id="r3gAfWyri1p_ZoTZVbQI-59" value="" style="endArrow=classic;html=1;rounded=0;exitX=0;exitY=1;exitDx=0;exitDy=0;" edge="1" parent="1" source="r3gAfWyri1p_ZoTZVbQI-42">
          <mxGeometry width="50" height="50" relative="1" as="geometry">
            <mxPoint x="550" y="520" as="sourcePoint" />
            <mxPoint x="240" y="490" as="targetPoint" />
          </mxGeometry>
        </mxCell>
      </root>
    </mxGraphModel>
  </diagram>
</mxfile>
